<?xml version="1.0" encoding="UTF-8"?>
<!DOCTYPE svg PUBLIC "-//W3C//DTD SVG 1.1//EN" "http://www.w3.org/Graphics/SVG/1.1/DTD/svg11.dtd">
<svg xmlns="http://www.w3.org/2000/svg" version="1.1" width="500px" height="500px" style="shape-rendering:geometricPrecision; text-rendering:geometricPrecision; image-rendering:optimizeQuality; fill-rule:evenodd; clip-rule:evenodd" xmlns:xlink="http://www.w3.org/1999/xlink">
<g><path style="opacity:1" fill="#fefefe" d="M -0.5,-0.5 C 166.167,-0.5 332.833,-0.5 499.5,-0.5C 499.5,166.167 499.5,332.833 499.5,499.5C 332.833,499.5 166.167,499.5 -0.5,499.5C -0.5,332.833 -0.5,166.167 -0.5,-0.5 Z"/></g>
<g><path style="opacity:1" fill="#090909" d="M 185.5,118.5 C 200.745,118.176 215.911,118.509 231,119.5C 231.896,122.025 231.396,124.192 229.5,126C 217.171,126.5 204.838,126.667 192.5,126.5C 192.667,138.838 192.5,151.171 192,163.5C 189.333,167.5 186.667,167.5 184,163.5C 183.333,149.167 183.333,134.833 184,120.5C 184.717,119.956 185.217,119.289 185.5,118.5 Z"/></g>
<g><path style="opacity:1" fill="#080808" d="M 268.5,118.5 C 283.848,118.167 299.181,118.501 314.5,119.5C 315.65,134.122 315.816,148.788 315,163.5C 312.383,167.476 309.716,167.476 307,163.5C 306.5,151.171 306.333,138.838 306.5,126.5C 294.162,126.667 281.829,126.5 269.5,126C 267.285,123.758 266.952,121.258 268.5,118.5 Z"/></g>
<g><path style="opacity:1" fill="#0d4dae" d="M 266.5,159.5 C 263.517,166.136 260.517,172.803 257.5,179.5C 254.326,184.516 251.659,189.849 249.5,195.5C 245.741,202.686 242.241,210.019 239,217.5C 237.416,218.861 235.582,219.528 233.5,219.5C 232.542,219.047 231.708,218.381 231,217.5C 230.333,215.167 230.333,212.833 231,210.5C 239.333,193.167 247.667,175.833 256,158.5C 258.21,155.71 261.044,154.877 264.5,156C 265.823,156.816 266.489,157.983 266.5,159.5 Z"/></g>
<g><path style="opacity:1" fill="#a973a9" d="M 266.5,159.5 C 268.571,160.572 269.905,162.239 270.5,164.5C 268.015,170.803 265.015,176.803 261.5,182.5C 259.027,182.912 257.694,181.912 257.5,179.5C 260.517,172.803 263.517,166.136 266.5,159.5 Z"/></g>
<g><path style="opacity:1" fill="#0b4dae" d="M 226.5,172.5 C 226.607,174.903 225.607,176.736 223.5,178C 217.682,180.41 212.015,183.077 206.5,186C 208.577,187.705 210.91,188.872 213.5,189.5C 216.689,191.26 220.022,192.76 223.5,194C 224.71,195.039 225.71,196.206 226.5,197.5C 226.777,201.223 225.11,203.556 221.5,204.5C 211.659,200.079 201.992,195.412 192.5,190.5C 190.068,184.711 191.734,180.544 197.5,178C 205.388,174.222 213.388,170.722 221.5,167.5C 224.181,168.181 225.848,169.848 226.5,172.5 Z"/></g>
<g><path style="opacity:1" fill="#0b4dae" d="M 305.5,185.5 C 305.451,188.099 304.451,190.266 302.5,192C 299.408,193.546 296.408,195.046 293.5,196.5C 287.643,198.93 281.977,201.597 276.5,204.5C 274.784,204.371 273.117,204.038 271.5,203.5C 269.566,199.739 270.233,196.573 273.5,194C 277.036,192.209 280.703,190.709 284.5,189.5C 287.057,188.812 289.391,187.646 291.5,186C 284.655,183.076 277.988,179.91 271.5,176.5C 269.474,170.704 271.474,167.871 277.5,168C 285.955,171.727 294.288,175.727 302.5,180C 304.607,181.264 305.607,183.097 305.5,185.5 Z"/></g>
<g><path style="opacity:1" fill="#9275a9" d="M 226.5,172.5 C 228.817,175.639 228.984,178.972 227,182.5C 222.203,184.48 217.703,186.813 213.5,189.5C 210.91,188.872 208.577,187.705 206.5,186C 212.015,183.077 217.682,180.41 223.5,178C 225.607,176.736 226.607,174.903 226.5,172.5 Z"/></g>
<g><path style="opacity:1" fill="#4386aa" d="M 271.5,176.5 C 277.988,179.91 284.655,183.076 291.5,186C 289.391,187.646 287.057,188.812 284.5,189.5C 281.752,186.952 278.419,185.118 274.5,184C 273.009,181.692 272.009,179.192 271.5,176.5 Z"/></g>
<g><path style="opacity:1" fill="#7a77a8" d="M 257.5,179.5 C 257.694,181.912 259.027,182.912 261.5,182.5C 259.438,187.625 257.104,192.625 254.5,197.5C 252.833,196.833 251.167,196.167 249.5,195.5C 251.659,189.849 254.326,184.516 257.5,179.5 Z"/></g>
<g><path style="opacity:1" fill="#4d84a9" d="M 305.5,185.5 C 309.285,192.14 307.618,196.807 300.5,199.5C 298.085,198.695 295.751,197.695 293.5,196.5C 296.408,195.046 299.408,193.546 302.5,192C 304.451,190.266 305.451,188.099 305.5,185.5 Z"/></g>
<g><path style="opacity:1" fill="#7d78a7" d="M 293.5,196.5 C 295.751,197.695 298.085,198.695 300.5,199.5C 296.355,201.736 292.022,203.736 287.5,205.5C 286.003,204.694 284.336,204.028 282.5,203.5C 280.591,204.348 278.591,204.682 276.5,204.5C 281.977,201.597 287.643,198.93 293.5,196.5 Z"/></g>
<g><path style="opacity:1" fill="#0b0b0b" d="M 185.5,201.5 C 188.044,201.104 190.211,201.771 192,203.5C 192.5,216.162 192.667,228.829 192.5,241.5C 203.505,241.333 214.505,241.5 225.5,242C 228.167,244.333 228.167,246.667 225.5,249C 212.167,249.667 198.833,249.667 185.5,249C 185,248.5 184.5,248 184,247.5C 183.333,232.833 183.333,218.167 184,203.5C 184.717,202.956 185.217,202.289 185.5,201.5 Z"/></g>
<g><path style="opacity:1" fill="#080808" d="M 308.5,201.5 C 311.044,201.104 313.211,201.771 315,203.5C 315.667,218.167 315.667,232.833 315,247.5C 314.5,248 314,248.5 313.5,249C 300.5,249.667 287.5,249.667 274.5,249C 272.275,246.975 271.941,244.642 273.5,242C 284.495,241.5 295.495,241.333 306.5,241.5C 306.333,228.829 306.5,216.162 307,203.5C 307.717,202.956 308.217,202.289 308.5,201.5 Z"/></g>
<g><path style="opacity:1" fill="#3b8ba9" d="M 192.5,190.5 C 201.992,195.412 211.659,200.079 221.5,204.5C 225.11,203.556 226.777,201.223 226.5,197.5C 228.458,201.036 228.625,204.702 227,208.5C 224.599,209.602 222.099,209.769 219.5,209C 210.509,205.421 202.009,200.921 194,195.5C 193.392,193.846 192.892,192.179 192.5,190.5 Z"/></g>
<g><path style="opacity:1" fill="#4d85a9" d="M 249.5,195.5 C 251.167,196.167 252.833,196.833 254.5,197.5C 250.562,206.542 246.229,215.376 241.5,224C 237.811,224.506 235.144,223.006 233.5,219.5C 235.582,219.528 237.416,218.861 239,217.5C 242.241,210.019 245.741,202.686 249.5,195.5 Z"/></g>
<g><path style="opacity:1" fill="#a974a9" d="M 271.5,203.5 C 273.117,204.038 274.784,204.371 276.5,204.5C 278.591,204.682 280.591,204.348 282.5,203.5C 284.336,204.028 286.003,204.694 287.5,205.5C 284.502,207.666 281.168,209.333 277.5,210.5C 274.073,209.405 272.073,207.072 271.5,203.5 Z"/></g>
<g><path style="opacity:1" fill="#16ccd2" d="M 119.5,271.5 C 121.5,271.5 123.5,271.5 125.5,271.5C 125.5,281.5 125.5,291.5 125.5,301.5C 123.5,301.5 121.5,301.5 119.5,301.5C 119.5,291.5 119.5,281.5 119.5,271.5 Z"/></g>
<g><path style="opacity:1" fill="#23cdd3" d="M 133.5,271.5 C 136.119,271.232 138.619,271.565 141,272.5C 144.667,278.5 148.333,284.5 152,290.5C 152.5,284.175 152.666,277.842 152.5,271.5C 154.5,271.5 156.5,271.5 158.5,271.5C 158.5,281.5 158.5,291.5 158.5,301.5C 156.076,301.808 153.743,301.474 151.5,300.5C 147.667,294.167 143.833,287.833 140,281.5C 139.5,288.158 139.334,294.825 139.5,301.5C 137.5,301.5 135.5,301.5 133.5,301.5C 133.5,291.5 133.5,281.5 133.5,271.5 Z"/></g>
<g><path style="opacity:1" fill="#20ccd3" d="M 162.5,271.5 C 170.5,271.5 178.5,271.5 186.5,271.5C 186.5,273.167 186.5,274.833 186.5,276.5C 183.5,276.5 180.5,276.5 177.5,276.5C 177.5,284.833 177.5,293.167 177.5,301.5C 175.5,301.5 173.5,301.5 171.5,301.5C 171.5,293.167 171.5,284.833 171.5,276.5C 168.5,276.5 165.5,276.5 162.5,276.5C 162.5,274.833 162.5,273.167 162.5,271.5 Z"/></g>
<g><path style="opacity:1" fill="#33ced5" d="M 190.5,271.5 C 197.5,271.5 204.5,271.5 211.5,271.5C 211.5,273.167 211.5,274.833 211.5,276.5C 206.833,276.5 202.167,276.5 197.5,276.5C 197.5,278.833 197.5,281.167 197.5,283.5C 201.5,283.5 205.5,283.5 209.5,283.5C 209.5,285.167 209.5,286.833 209.5,288.5C 205.5,288.5 201.5,288.5 197.5,288.5C 197.5,291.167 197.5,293.833 197.5,296.5C 202.167,296.5 206.833,296.5 211.5,296.5C 211.5,298.167 211.5,299.833 211.5,301.5C 204.5,301.5 197.5,301.5 190.5,301.5C 190.5,291.5 190.5,281.5 190.5,271.5 Z"/></g>
<g><path style="opacity:1" fill="#25cdd3" d="M 216.5,271.5 C 218.5,271.5 220.5,271.5 222.5,271.5C 222.5,279.833 222.5,288.167 222.5,296.5C 227.167,296.5 231.833,296.5 236.5,296.5C 236.5,298.167 236.5,299.833 236.5,301.5C 229.833,301.5 223.167,301.5 216.5,301.5C 216.5,291.5 216.5,281.5 216.5,271.5 Z"/></g>
<g><path style="opacity:1" fill="#3cd0d6" d="M 240.5,271.5 C 242.833,271.5 245.167,271.5 247.5,271.5C 247.5,279.833 247.5,288.167 247.5,296.5C 251.833,296.5 256.167,296.5 260.5,296.5C 260.5,298.167 260.5,299.833 260.5,301.5C 253.833,301.5 247.167,301.5 240.5,301.5C 240.5,291.5 240.5,281.5 240.5,271.5 Z"/></g>
<g><path style="opacity:1" fill="#19ccd3" d="M 265.5,271.5 C 267.5,271.5 269.5,271.5 271.5,271.5C 271.5,281.5 271.5,291.5 271.5,301.5C 269.5,301.5 267.5,301.5 265.5,301.5C 265.5,291.5 265.5,281.5 265.5,271.5 Z"/></g>
<g><path style="opacity:1" fill="#2fced5" d="M 282.5,271.5 C 286.514,271.334 290.514,271.501 294.5,272C 299.655,273.814 299.822,275.981 295,278.5C 291.686,276.693 288.186,276.193 284.5,277C 283.167,278.667 283.167,280.333 284.5,282C 289.493,282.86 293.993,284.694 298,287.5C 301.136,298.374 296.97,303.207 285.5,302C 281.828,301.169 278.828,299.335 276.5,296.5C 277.48,295.019 278.647,293.685 280,292.5C 283.05,296.13 286.883,297.297 291.5,296C 294.167,294 294.167,292 291.5,290C 286.056,289.689 281.556,287.523 278,283.5C 276.309,278.131 277.809,274.131 282.5,271.5 Z"/></g>
<g><path style="opacity:1" fill="#2dced4" d="M 311.5,271.5 C 315.514,271.334 319.514,271.501 323.5,272C 329.459,274.606 329.793,277.439 324.5,280.5C 321.717,276.829 318.05,275.662 313.5,277C 309.121,281.841 308.288,287.341 311,293.5C 313.559,296.349 316.726,297.183 320.5,296C 322.5,295.333 323.833,294 324.5,292C 327.738,291.184 329.238,292.35 329,295.5C 321.173,304.769 313.173,304.769 305,295.5C 301.285,285.645 303.451,277.645 311.5,271.5 Z"/></g>
<g><path style="opacity:1" fill="#29cdd4" d="M 340.5,271.5 C 344.03,270.989 347.196,271.656 350,273.5C 352.975,282.758 356.141,291.925 359.5,301C 357.19,301.497 354.857,301.663 352.5,301.5C 353.022,295.859 350.522,293.526 345,294.5C 339.478,293.526 336.978,295.859 337.5,301.5C 335.143,301.663 332.81,301.497 330.5,301C 334.531,291.408 337.864,281.575 340.5,271.5 Z"/></g>
<g><path style="opacity:1" fill="#26cdd4" d="M 363.5,271.5 C 365.857,271.337 368.19,271.503 370.5,272C 374.333,277.833 378.167,283.667 382,289.5C 382.499,283.509 382.666,277.509 382.5,271.5C 384.5,271.5 386.5,271.5 388.5,271.5C 388.5,281.5 388.5,291.5 388.5,301.5C 385.635,301.945 383.135,301.278 381,299.5C 377.73,293.236 374.064,287.236 370,281.5C 369.5,288.158 369.334,294.825 369.5,301.5C 367.5,301.5 365.5,301.5 363.5,301.5C 363.5,291.5 363.5,281.5 363.5,271.5 Z"/></g>
<g><path style="opacity:1" fill="#f8fdfd" d="M 344.5,278.5 C 346.601,281.797 347.935,285.463 348.5,289.5C 346.167,289.5 343.833,289.5 341.5,289.5C 342.297,285.777 343.297,282.11 344.5,278.5 Z"/></g>
</svg>
