<?xml version="1.0" encoding="UTF-8"?>
<!DOCTYPE svg PUBLIC "-//W3C//DTD SVG 1.1//EN" "http://www.w3.org/Graphics/SVG/1.1/DTD/svg11.dtd">
<svg xmlns="http://www.w3.org/2000/svg" version="1.1" width="187px" height="162px" style="shape-rendering:geometricPrecision; text-rendering:geometricPrecision; image-rendering:optimizeQuality; fill-rule:evenodd; clip-rule:evenodd" xmlns:xlink="http://www.w3.org/1999/xlink">
<g><path style="opacity:1" fill="#fdfdfd" d="M -0.5,-0.5 C 61.8333,-0.5 124.167,-0.5 186.5,-0.5C 186.5,53.5 186.5,107.5 186.5,161.5C 124.167,161.5 61.8333,161.5 -0.5,161.5C -0.5,107.5 -0.5,53.5 -0.5,-0.5 Z"/></g>
<g><path style="opacity:1" fill="#090909" d="M 29.5,11.5 C 44.7448,11.1758 59.9114,11.5092 75,12.5C 75.8959,15.025 75.3959,17.1917 73.5,19C 61.1712,19.4999 48.8378,19.6665 36.5,19.5C 36.6665,31.8378 36.4999,44.1712 36,56.5C 33.3333,60.5 30.6667,60.5 28,56.5C 27.3333,42.1667 27.3333,27.8333 28,13.5C 28.7172,12.9558 29.2172,12.2891 29.5,11.5 Z"/></g>
<g><path style="opacity:1" fill="#080808" d="M 112.5,11.5 C 127.848,11.1673 143.181,11.5006 158.5,12.5C 159.65,27.1218 159.816,41.7885 159,56.5C 156.383,60.4759 153.716,60.4759 151,56.5C 150.5,44.1712 150.333,31.8378 150.5,19.5C 138.162,19.6665 125.829,19.4999 113.5,19C 111.285,16.7585 110.952,14.2585 112.5,11.5 Z"/></g>
<g><path style="opacity:1" fill="#0d4dae" d="M 110.5,52.5 C 107.517,59.1361 104.517,65.8028 101.5,72.5C 98.3255,77.5156 95.6588,82.8489 93.5,88.5C 91.2288,92.7091 89.2288,97.0424 87.5,101.5C 85.5033,104.16 84.0033,107.16 83,110.5C 81.4157,111.861 79.5824,112.528 77.5,112.5C 76.5416,112.047 75.7083,111.381 75,110.5C 74.3333,108.167 74.3333,105.833 75,103.5C 83.3333,86.1667 91.6667,68.8333 100,51.5C 102.21,48.7104 105.044,47.877 108.5,49C 109.823,49.8159 110.489,50.9826 110.5,52.5 Z"/></g>
<g><path style="opacity:1" fill="#a973a9" d="M 110.5,52.5 C 112.571,53.5719 113.905,55.2385 114.5,57.5C 112.015,63.8034 109.015,69.8034 105.5,75.5C 103.027,75.9118 101.694,74.9118 101.5,72.5C 104.517,65.8028 107.517,59.1361 110.5,52.5 Z"/></g>
<g><path style="opacity:1" fill="#0b4dae" d="M 70.5,65.5 C 70.607,67.9032 69.607,69.7365 67.5,71C 61.6818,73.4098 56.0151,76.0765 50.5,79C 52.5766,80.705 54.91,81.8717 57.5,82.5C 60.6887,84.2599 64.0221,85.7599 67.5,87C 68.7101,88.0391 69.7101,89.2058 70.5,90.5C 70.7767,94.2231 69.11,96.5564 65.5,97.5C 55.6591,93.0788 45.9924,88.4121 36.5,83.5C 34.0677,77.7109 35.7343,73.5443 41.5,71C 49.388,67.2222 57.388,63.7222 65.5,60.5C 68.1811,61.1811 69.8478,62.8477 70.5,65.5 Z"/></g>
<g><path style="opacity:1" fill="#0b4dae" d="M 149.5,78.5 C 149.451,81.0991 148.451,83.2658 146.5,85C 140.51,87.3731 134.844,90.2064 129.5,93.5C 126.076,94.9589 122.576,96.2922 119,97.5C 117.862,97.0109 116.695,96.6775 115.5,96.5C 113.566,92.7394 114.233,89.5727 117.5,87C 121.036,85.2094 124.703,83.7094 128.5,82.5C 131.057,81.8122 133.391,80.6455 135.5,79C 128.655,76.0762 121.988,72.9095 115.5,69.5C 113.474,63.7043 115.474,60.871 121.5,61C 129.955,64.7274 138.288,68.7274 146.5,73C 148.607,74.2635 149.607,76.0968 149.5,78.5 Z"/></g>
<g><path style="opacity:1" fill="#9275a9" d="M 70.5,65.5 C 72.8174,68.6391 72.984,71.9725 71,75.5C 66.203,77.4801 61.703,79.8135 57.5,82.5C 54.91,81.8717 52.5766,80.705 50.5,79C 56.0151,76.0765 61.6818,73.4098 67.5,71C 69.607,69.7365 70.607,67.9032 70.5,65.5 Z"/></g>
<g><path style="opacity:1" fill="#4385aa" d="M 115.5,69.5 C 121.988,72.9095 128.655,76.0762 135.5,79C 133.391,80.6455 131.057,81.8122 128.5,82.5C 125.752,79.9517 122.419,78.1183 118.5,77C 117.009,74.6922 116.009,72.1922 115.5,69.5 Z"/></g>
<g><path style="opacity:1" fill="#7877a8" d="M 101.5,72.5 C 101.694,74.9118 103.027,75.9118 105.5,75.5C 103.438,80.6248 101.104,85.6248 98.5,90.5C 96.8333,89.8333 95.1667,89.1667 93.5,88.5C 95.6588,82.8489 98.3255,77.5156 101.5,72.5 Z"/></g>
<g><path style="opacity:1" fill="#5a80a8" d="M 149.5,78.5 C 151.848,81.9744 152.014,85.6411 150,89.5C 145.835,92.4992 141.335,94.8326 136.5,96.5C 136.423,95.2502 135.756,94.4169 134.5,94C 132.866,93.5065 131.199,93.3398 129.5,93.5C 134.844,90.2064 140.51,87.3731 146.5,85C 148.451,83.2658 149.451,81.0991 149.5,78.5 Z"/></g>
<g><path style="opacity:1" fill="#0b0b0b" d="M 29.5,94.5 C 32.0444,94.1043 34.2111,94.771 36,96.5C 36.4999,109.162 36.6666,121.829 36.5,134.5C 47.505,134.333 58.505,134.5 69.5,135C 72.1667,137.333 72.1667,139.667 69.5,142C 56.1667,142.667 42.8333,142.667 29.5,142C 29,141.5 28.5,141 28,140.5C 27.3333,125.833 27.3333,111.167 28,96.5C 28.7172,95.9558 29.2172,95.2891 29.5,94.5 Z"/></g>
<g><path style="opacity:1" fill="#080808" d="M 152.5,94.5 C 155.044,94.1043 157.211,94.771 159,96.5C 159.667,111.167 159.667,125.833 159,140.5C 158.5,141 158,141.5 157.5,142C 144.5,142.667 131.5,142.667 118.5,142C 116.275,139.975 115.941,137.642 117.5,135C 128.495,134.5 139.495,134.333 150.5,134.5C 150.333,121.829 150.5,109.162 151,96.5C 151.717,95.9558 152.217,95.2891 152.5,94.5 Z"/></g>
<g><path style="opacity:1" fill="#3c8aa9" d="M 36.5,83.5 C 45.9924,88.4121 55.6591,93.0788 65.5,97.5C 69.11,96.5564 70.7767,94.2231 70.5,90.5C 72.4583,94.0357 72.625,97.7024 71,101.5C 68.5991,102.602 66.0991,102.769 63.5,102C 54.5089,98.4212 46.0089,93.9212 38,88.5C 37.3923,86.8455 36.8923,85.1789 36.5,83.5 Z"/></g>
<g><path style="opacity:1" fill="#5881a8" d="M 93.5,88.5 C 95.1667,89.1667 96.8333,89.8333 98.5,90.5C 97.0078,94.8178 95.0078,98.8178 92.5,102.5C 90.7839,102.371 89.1172,102.038 87.5,101.5C 89.2288,97.0424 91.2288,92.7091 93.5,88.5 Z"/></g>
<g><path style="opacity:1" fill="#9d75a8" d="M 129.5,93.5 C 131.199,93.3398 132.866,93.5065 134.5,94C 135.756,94.4169 136.423,95.2502 136.5,96.5C 131.641,99.0954 126.641,101.429 121.5,103.5C 118.073,102.405 116.073,100.072 115.5,96.5C 116.695,96.6775 117.862,97.0109 119,97.5C 122.576,96.2922 126.076,94.9589 129.5,93.5 Z"/></g>
<g><path style="opacity:1" fill="#368aa9" d="M 87.5,101.5 C 89.1172,102.038 90.7839,102.371 92.5,102.5C 90.5626,107.541 88.2293,112.374 85.5,117C 81.8111,117.506 79.1444,116.006 77.5,112.5C 79.5824,112.528 81.4157,111.861 83,110.5C 84.0033,107.16 85.5033,104.16 87.5,101.5 Z"/></g>
</svg>
